<?xml version="1.0" encoding="UTF-8"?>
<!-- Generator: https://ezgif.com/png-to-svg -->
<svg version="1.1" xmlns="http://www.w3.org/2000/svg" width="32" height="32">
<path d="M0 0 C4.88 2.27 7.73 5.12 10 10 C10.75 15.6 10.77 20.33 8.38 25.5 C3.8 30.31 0.69 32.25 -6 32.5 C-12.69 32.25 -15.8 30.31 -20.38 25.5 C-22.77 20.33 -22.75 15.6 -22 10 C-17.52 0.36 -9.85 -1.33 0 0 Z " fill="#3E6FDF" transform="translate(22,0)"/>
<path d="M0 0 C5.01 2.33 7.27 5.38 10 10 C9.01 11.48 9.01 11.48 8 13 C5 12 5 12 4 11 C3.34 10.67 2.68 10.34 2 10 C2.99 8.68 3.98 7.36 5 6 C3.68 7.32 2.36 8.64 1 10 C0.34 9.67 -0.32 9.34 -1 9 C-0.34 7.02 0.32 5.04 1 3 C-1.17 3.79 -1.17 3.79 -1.63 5.85 C-1.8 6.58 -1.96 7.31 -2.12 8.06 C-2.29 8.8 -2.46 9.53 -2.63 10.29 C-2.75 10.85 -2.88 11.42 -3 12 C-3.66 12 -4.32 12 -5 12 C-5.66 10.35 -6.32 8.7 -7 7 C-7.66 7 -8.32 7 -9 7 C-9 7.99 -9 8.98 -9 10 C-9.33 10.99 -9.66 11.98 -10 13 C-10.66 13 -11.32 13 -12 13 C-12.66 11.68 -13.32 10.36 -14 9 C-14.66 9 -15.32 9 -16 9 C-17.84 12.69 -17.35 16.96 -17 21 C-15.58 24.59 -14.77 25.62 -11.31 27.31 C-10.55 27.54 -9.79 27.77 -9 28 C-9 28.66 -9 29.32 -9 30 C-11.87 29.92 -13.54 29.45 -15.6 27.41 C-16.64 26.16 -17.67 24.88 -18.67 23.59 C-19.93 21.87 -19.93 21.87 -22 21 C-22.62 11.31 -22.62 11.31 -20.38 6.56 C-14.2 -0.1 -8.87 -1.19 0 0 Z " fill="#6195DE" transform="translate(22,0)"/>
<path d="M0 0 C1.32 0.66 2.64 1.32 4 2 C4 3.32 4 4.64 4 6 C5.32 6.33 6.64 6.66 8 7 C6.12 10.88 6.12 10.88 5 12 C3.48 12.07 1.96 12.08 0.44 12.06 C-0.39 12.05 -1.22 12.04 -2.07 12.04 C-2.7 12.02 -3.34 12.01 -4 12 C-3.67 12.99 -3.34 13.98 -3 15 C-0.21 16.03 -0.21 16.03 3.06 16.69 C4.17 16.94 5.27 17.19 6.41 17.45 C7.26 17.63 8.12 17.81 9 18 C8.67 18.99 8.34 19.98 8 21 C3.45 22.52 -0.38 22.72 -4.81 20.75 C-7.17 18.86 -7.9 17.77 -9 15 C-9.27 12.53 -9.27 12.53 -9.25 9.94 C-9.26 9.08 -9.26 8.22 -9.27 7.34 C-9 5 -9 5 -7 2 C-6.01 2.33 -5.02 2.66 -4 3 C-3.31 5.06 -3.31 5.06 -3 7 C-2.01 6.01 -1.02 5.02 0 4 C-0.66 3.67 -1.32 3.34 -2 3 C-1.34 2.01 -0.68 1.02 0 0 Z " fill="#0958E9" transform="translate(13,6)"/>
<path d="M0 0 C2.34 0.29 4.67 0.62 7 1 C6.43 3.87 6.14 4.86 4 7 C-1.24 7.35 -5.07 6.97 -10 5 C-10 4.01 -10 3.02 -10 2 C-9.04 1.91 -9.04 1.91 -8.07 1.82 C-6.83 1.69 -6.83 1.69 -5.56 1.56 C-4.74 1.48 -3.92 1.4 -3.07 1.32 C-1.01 1.21 -1.01 1.21 0 0 Z " fill="#EEEEF0" transform="translate(19,16)"/>
<path d="M0 0 C0.99 0.33 1.98 0.66 3 1 C2.67 1.99 2.34 2.98 2 4 C1.67 3.67 1.34 3.34 1 3 C0.97 4.77 0.95 6.54 0.94 8.31 C0.93 9.3 0.91 10.28 0.9 11.3 C0.88 14.1 0.88 14.1 2 17 C3.58 17.03 5.17 17.05 6.75 17.06 C7.63 17.07 8.51 17.09 9.42 17.1 C11.78 17.01 13.74 16.67 16 16 C15.67 16.99 15.34 17.98 15 19 C10.45 20.52 6.62 20.72 2.19 18.75 C-0.17 16.86 -0.9 15.77 -2 13 C-2.27 10.53 -2.27 10.53 -2.25 7.94 C-2.26 7.08 -2.26 6.22 -2.27 5.34 C-2 3 -2 3 0 0 Z " fill="#1346A3" transform="translate(6,8)"/>
<path d="M0 0 C0.66 0 1.32 0 2 0 C1.67 1.98 1.34 3.96 1 6 C1.33 5.67 1.66 5.34 2 5 C3.33 4.32 4.66 3.65 6 3 C5.67 4.32 5.34 5.64 5 7 C5.99 7.33 6.98 7.66 8 8 C7.01 8.62 7.01 8.62 6 9.25 C5.34 9.83 4.68 10.4 4 11 C4 12.32 4 13.64 4 15 C2.68 14.67 1.36 14.34 0 14 C-2.05 8.41 -2.05 5.59 0 0 Z " fill="#7D4E78" transform="translate(21,3)"/>
<path d="M0 0 C1.88 0.25 1.88 0.25 4 1 C5.25 3.06 5.25 3.06 6 5 C4.68 5.33 3.36 5.66 2 6 C0 3 0 3 0 0 Z " fill="#374B74" transform="translate(20,12)"/>
<path d="M0 0 C1.32 0.66 2.64 1.32 4 2 C4 2.66 4 3.32 4 4 C2.02 4 0.04 4 -2 4 C-1.34 2.68 -0.68 1.36 0 0 Z " fill="#1A4CA9" transform="translate(13,6)"/>
</svg>
